<svg width="22" height="22" viewBox="0 0 22 22" fill="none" xmlns="http://www.w3.org/2000/svg">
<path d="M15.5911 19.2454L6.42447 19.2541C4.4078 19.256 2.75642 17.6078 2.75413 15.5911L2.74542 6.42446C2.74359 4.40779 4.39176 2.75642 6.40842 2.75412L15.5751 2.74542C17.5918 2.74358 19.2431 4.39175 19.2454 6.40842L19.2541 15.5751C19.2564 17.5922 17.6078 19.2436 15.5911 19.2454Z" fill="url(#paint0_radial_84_99)"/>
<path d="M15.5911 19.2454L6.42447 19.2541C4.4078 19.256 2.75642 17.6078 2.75413 15.5911L2.74542 6.42446C2.74359 4.40779 4.39176 2.75642 6.40842 2.75412L15.5751 2.74542C17.5918 2.74358 19.2431 4.39175 19.2454 6.40842L19.2541 15.5751C19.2564 17.5922 17.6078 19.2436 15.5911 19.2454Z" fill="url(#paint1_radial_84_99)"/>
<path d="M11 14.2083C9.23131 14.2083 7.79169 12.7692 7.79169 11C7.79169 9.23083 9.23131 7.79167 11 7.79167C12.7687 7.79167 14.2084 9.23083 14.2084 11C14.2084 12.7692 12.7687 14.2083 11 14.2083ZM11 8.70833C9.7364 8.70833 8.70835 9.73638 8.70835 11C8.70835 12.2636 9.7364 13.2917 11 13.2917C12.2636 13.2917 13.2917 12.2636 13.2917 11C13.2917 9.73638 12.2636 8.70833 11 8.70833Z" fill="white"/>
<path d="M14.4375 8.25C14.8172 8.25 15.125 7.9422 15.125 7.5625C15.125 7.1828 14.8172 6.875 14.4375 6.875C14.0578 6.875 13.75 7.1828 13.75 7.5625C13.75 7.9422 14.0578 8.25 14.4375 8.25Z" fill="white"/>
<path d="M13.75 16.9583H8.25002C6.48131 16.9583 5.04169 15.5192 5.04169 13.75V8.25C5.04169 6.48083 6.48131 5.04167 8.25002 5.04167H13.75C15.5187 5.04167 16.9584 6.48083 16.9584 8.25V13.75C16.9584 15.5192 15.5187 16.9583 13.75 16.9583ZM8.25002 5.95833C6.9864 5.95833 5.95835 6.98638 5.95835 8.25V13.75C5.95835 15.0136 6.9864 16.0417 8.25002 16.0417H13.75C15.0136 16.0417 16.0417 15.0136 16.0417 13.75V8.25C16.0417 6.98638 15.0136 5.95833 13.75 5.95833H8.25002Z" fill="white"/>
<defs>
<radialGradient id="paint0_radial_84_99" cx="0" cy="0" r="1" gradientUnits="userSpaceOnUse" gradientTransform="translate(8.88251 19.266) scale(20.5787)">
<stop stop-color="#FFDD55"/>
<stop offset="0.328" stop-color="#FF543F"/>
<stop offset="0.348" stop-color="#FC5245"/>
<stop offset="0.504" stop-color="#E64771"/>
<stop offset="0.643" stop-color="#D53E91"/>
<stop offset="0.761" stop-color="#CC39A4"/>
<stop offset="0.841" stop-color="#C837AB"/>
</radialGradient>
<radialGradient id="paint1_radial_84_99" cx="0" cy="0" r="1" gradientUnits="userSpaceOnUse" gradientTransform="translate(5.40192 2.5393) scale(13.6643 9.10452)">
<stop stop-color="#4168C9"/>
<stop offset="0.999" stop-color="#4168C9" stop-opacity="0"/>
</radialGradient>
</defs>
</svg>
