<svg width="22" height="22" viewBox="0 0 22 22" fill="none" xmlns="http://www.w3.org/2000/svg">
<path d="M19.25 5.69662C18.6436 5.96521 17.9914 6.14442 17.3034 6.22921C18.0028 5.81396 18.5409 5.15167 18.7935 4.36929C18.139 4.75292 17.4139 5.03479 16.6425 5.18329C16.0265 4.53017 15.1479 4.125 14.1744 4.125C12.3044 4.125 10.7887 5.62742 10.7887 7.48C10.7887 7.74217 10.8194 7.99746 10.8771 8.24542C8.06389 8.10425 5.56872 6.76683 3.89947 4.73733C3.60614 5.23325 3.44114 5.81396 3.44114 6.42675C3.44114 7.59137 4.03743 8.61667 4.94676 9.22075C4.39172 9.20379 3.86922 9.04933 3.4118 8.80183C3.4118 8.81192 3.4118 8.82704 3.4118 8.84125C3.4118 10.4688 4.57918 11.8241 6.12651 12.1325C5.84372 12.21 5.54489 12.2531 5.23689 12.2531C5.01826 12.2531 4.80514 12.2283 4.59889 12.1912C5.02972 13.5213 6.2796 14.4934 7.76047 14.5223C6.6018 15.4206 5.14247 15.9587 3.55572 15.9587C3.28164 15.9587 3.01351 15.9431 2.7486 15.911C4.2478 16.8602 6.02797 17.4167 7.93876 17.4167C14.1652 17.4167 17.5716 12.3035 17.5716 7.86775C17.5716 7.72246 17.567 7.57763 17.5601 7.43463C18.2247 6.96529 18.7976 6.37312 19.25 5.69662Z" fill="#03A9F4"/>
</svg>
