<svg width="23" height="22" viewBox="0 0 23 22" fill="none" xmlns="http://www.w3.org/2000/svg">
<path fill-rule="evenodd" clip-rule="evenodd" d="M2.33258 19.8472L3.62346 15.3395C2.82708 14.0204 2.40829 12.5235 2.40877 10.9904C2.41116 6.19392 6.49175 2.29167 11.5067 2.29167C13.9404 2.29258 16.2241 3.19871 17.9419 4.84275C19.6592 6.48725 20.6051 8.67258 20.6042 10.9973C20.6022 15.7937 16.5207 19.6964 11.5067 19.6964C11.5062 19.6964 11.5067 19.6964 11.5067 19.6964H11.5029C9.98056 19.696 8.48412 19.3307 7.15539 18.6372L2.33258 19.8472Z" fill="white"/>
<path fill-rule="evenodd" clip-rule="evenodd" d="M2.33257 20.0764C2.26932 20.0764 2.20799 20.0525 2.16247 20.0085C2.10257 19.9503 2.0791 19.8655 2.10162 19.7872L3.36614 15.3707C2.58222 14.0387 2.1687 12.5262 2.16966 10.9908C2.17157 6.06742 6.35997 2.0625 11.5067 2.0625C14.0032 2.06342 16.3487 2.99338 18.1115 4.68096C19.8744 6.369 20.8447 8.61208 20.8437 10.9972C20.8418 15.9202 16.6529 19.9256 11.5067 19.9256C9.97864 19.9251 8.46687 19.5644 7.1252 18.882L2.39343 20.0686C2.3733 20.0741 2.35318 20.0764 2.33257 20.0764Z" fill="white"/>
<path fill-rule="evenodd" clip-rule="evenodd" d="M11.5067 2.29167C13.9404 2.29258 16.2241 3.19871 17.9419 4.84275C19.6592 6.48725 20.6051 8.67258 20.6042 10.9972C20.6022 15.7937 16.5207 19.6964 11.5067 19.6964H11.5029C9.98055 19.696 8.48412 19.3307 7.15539 18.6372L2.33257 19.8472L3.62345 15.3395C2.82707 14.0204 2.40828 12.5235 2.40876 10.9904C2.41116 6.19392 6.49174 2.29167 11.5067 2.29167ZM11.5067 1.83333C6.2282 1.83333 1.93199 5.94092 1.9296 10.9904C1.92912 12.5336 2.33641 14.0543 3.10882 15.4005L1.87018 19.7267C1.82514 19.8848 1.87114 20.0535 1.99189 20.1699C2.08293 20.2579 2.20607 20.306 2.33257 20.306C2.3733 20.306 2.41403 20.301 2.45428 20.2909L7.09597 19.1267C8.45105 19.7995 9.97001 20.1547 11.5029 20.1552C16.7852 20.1552 21.0814 16.0472 21.0838 10.9977C21.0848 8.55067 20.0895 6.24983 18.2816 4.51917C16.4728 2.78804 14.0669 1.83425 11.5067 1.83333Z" fill="#CFD8DC"/>
<path fill-rule="evenodd" clip-rule="evenodd" d="M16.8552 5.88134C15.4273 4.51459 13.5293 3.76154 11.5091 3.76109C7.33846 3.76109 3.94644 7.00425 3.94452 10.9908C3.94404 12.3571 4.34367 13.6872 5.10075 14.839L5.28092 15.1126L4.51664 17.7806L7.37871 17.0628L7.65519 17.2196C8.81573 17.8787 10.1469 18.227 11.5039 18.2275H11.5067C15.6745 18.2275 19.0665 14.9838 19.068 10.9968C19.0685 9.06492 18.2831 7.24809 16.8552 5.88134Z" fill="#40C351"/>
<path fill-rule="evenodd" clip-rule="evenodd" d="M9.23259 7.35396C9.06249 6.99188 8.88328 6.98454 8.72084 6.97813C8.58812 6.97263 8.4367 6.97309 8.28528 6.97309C8.13387 6.97309 7.88757 7.02763 7.67914 7.24534C7.4707 7.46304 6.88324 7.98875 6.88324 9.0585C6.88324 10.1283 7.69782 11.1623 7.81139 11.3071C7.92495 11.4519 9.38401 13.7175 11.6946 14.5892C13.6146 15.3134 14.0056 15.1695 14.4224 15.1333C14.8393 15.097 15.7675 14.6075 15.9567 14.0997C16.146 13.5919 16.146 13.1569 16.0895 13.0662C16.0324 12.9754 15.881 12.9213 15.6539 12.8123C15.4268 12.7032 14.3089 12.1775 14.1004 12.105C13.892 12.0326 13.7406 11.9964 13.5887 12.2141C13.4373 12.4314 13.0017 12.9213 12.869 13.0662C12.7363 13.2115 12.6035 13.2298 12.3764 13.1207C12.1493 13.0116 11.4171 12.7825 10.5484 12.0418C9.87276 11.4657 9.41659 10.7539 9.28386 10.5362C9.15114 10.3189 9.26949 10.2011 9.38353 10.0925C9.48559 9.99488 9.61066 9.83858 9.7247 9.71163C9.83826 9.58467 9.87611 9.49392 9.95182 9.34909C10.0275 9.20379 9.98968 9.07683 9.93266 8.96821C9.87659 8.85913 9.4348 7.78388 9.23259 7.35396Z" fill="white"/>
</svg>
