<svg width="22" height="22" viewBox="0 0 22 22" fill="none" xmlns="http://www.w3.org/2000/svg">
<path d="M11 2.29167C8.69043 2.29167 6.47543 3.20915 4.8423 4.84228C3.20917 6.47541 2.29169 8.69041 2.29169 11C2.29169 13.3096 3.20917 15.5246 4.8423 17.1577C6.47543 18.7909 8.69043 19.7083 11 19.7083C13.3096 19.7083 15.5246 18.7909 17.1577 17.1577C18.7909 15.5246 19.7084 13.3096 19.7084 11C19.7084 8.69041 18.7909 6.47541 17.1577 4.84228C15.5246 3.20915 13.3096 2.29167 11 2.29167Z" fill="#039BE5"/>
<path d="M12.1788 13.3082H14.4325L14.7863 11.0188H12.1784V9.76754C12.1784 8.8165 12.4891 7.97317 13.3787 7.97317H14.8083V5.97529C14.5571 5.94138 14.0259 5.86713 13.0222 5.86713C10.9262 5.86713 9.69741 6.974 9.69741 9.49575V11.0188H7.54279V13.3082H9.69741V19.6006C10.1241 19.6648 10.5563 19.7083 11 19.7083C11.401 19.7083 11.7925 19.6717 12.1788 19.6194V13.3082Z" fill="white"/>
</svg>
